<?xml version="1.0" encoding="UTF-8" standalone="no"?><!-- Generator: Gravit.io --><svg xmlns="http://www.w3.org/2000/svg" xmlns:xlink="http://www.w3.org/1999/xlink" style="isolation:isolate" viewBox="0 0 1071.604 199.1" width="1071.604pt" height="199.1pt"><defs><clipPath id="_clipPath_XBL4hm7knxoY1f2FjbeLl5RT9aVjYToJ"><rect width="1071.604" height="199.1"/></clipPath></defs><g clip-path="url(#_clipPath_XBL4hm7knxoY1f2FjbeLl5RT9aVjYToJ)"><g><clipPath id="_clipPath_SfSb8y5o5NBe4to7O6aJwu0jMCJrRMrn"><rect x="0" y="0" width="1071.604" height="199.1" transform="matrix(1,0,0,1,0,0)" fill="rgb(255,255,255)"/></clipPath><g clip-path="url(#_clipPath_SfSb8y5o5NBe4to7O6aJwu0jMCJrRMrn)"><g><g><g><path d=" M 75.705 76.966 C 67.225 74.418 59.301 69.745 54.881 61.411 C 61.415 57.375 68.347 54.157 75.439 51.959 C 73.411 55.603 72.247 59.789 72.247 64.245 C 72.247 68.883 73.521 73.221 75.705 76.966 L 75.705 76.966 Z  M 97.595 79.809 C 89.013 79.809 82.029 72.827 82.029 64.245 C 82.029 55.662 89.013 48.681 97.595 48.681 C 106.177 48.681 113.158 55.662 113.158 64.245 C 113.158 72.827 106.177 79.809 97.595 79.809 Z  M 82.934 122.134 C 91.415 124.682 99.338 129.354 103.759 137.687 C 97.225 141.725 90.291 144.945 83.199 147.141 C 85.227 143.497 86.393 139.311 86.393 134.854 C 86.393 130.215 85.119 125.878 82.934 122.134 L 82.934 122.134 Z  M 61.045 119.29 C 69.626 119.29 76.61 126.271 76.61 134.854 C 76.61 143.437 69.626 150.421 61.045 150.421 C 52.462 150.421 45.479 143.437 45.479 134.854 C 45.479 126.271 52.462 119.29 61.045 119.29 L 61.045 119.29 Z  M 111.806 132.157 C 103.502 117.685 85.906 109.507 61.341 109.507 C 61.306 109.507 61.275 109.517 61.242 109.518 C 61.175 109.518 61.111 109.507 61.045 109.507 C 47.066 109.507 35.697 120.879 35.697 134.854 C 35.697 148.831 47.066 160.203 61.045 160.203 C 61.391 160.203 61.727 160.163 62.069 160.151 C 62.241 160.169 62.407 160.203 62.585 160.203 C 77.814 160.203 93.127 155.363 106.887 147.315 C 107.21 149.33 107.399 151.47 107.399 153.777 C 107.399 174.406 89.907 188.267 63.874 188.267 C 38.327 188.267 10.833 170.047 10.833 130.045 C 10.833 106.813 25.961 82.806 46.834 66.943 C 55.137 81.415 72.733 89.594 97.299 89.594 C 97.333 89.594 97.365 89.585 97.398 89.583 C 97.463 89.585 97.529 89.594 97.595 89.594 C 111.571 89.594 122.941 78.222 122.941 64.245 C 122.941 50.269 111.571 38.895 97.595 38.895 C 97.249 38.895 96.913 38.934 96.57 38.947 C 96.399 38.93 96.231 38.895 96.055 38.895 C 80.825 38.895 65.511 43.734 51.751 51.782 C 51.429 49.769 51.239 47.629 51.239 45.322 C 51.239 24.694 68.733 10.835 94.765 10.835 C 120.31 10.835 147.805 29.053 147.805 69.055 C 147.805 92.286 132.677 116.293 111.806 132.157 L 111.806 132.157 Z  M 157.587 69.055 C 157.587 22.331 125.023 1.05 94.765 1.05 C 63.377 1.05 41.457 19.255 41.457 45.322 C 41.457 49.665 41.97 53.733 42.969 57.507 C 18.646 75.067 1.05 102.703 1.05 130.045 C 1.05 176.769 33.617 198.05 63.874 198.05 C 95.262 198.05 117.182 179.843 117.182 153.777 C 117.182 149.434 116.67 145.365 115.67 141.591 C 139.991 124.03 157.587 96.395 157.587 69.055 Z " fill="rgb(105,105,105)" vector-effect="non-scaling-stroke" stroke-width="2.1" stroke="rgb(105,105,105)" stroke-opacity="100" stroke-linejoin="miter" stroke-linecap="butt" stroke-miterlimit="4"/></g><g><g><path d=" M 185.968 55.044 L 208.615 55.044 L 208.615 97.044 L 241.693 55.044 L 263.926 55.044 L 232.634 96.77 L 268.318 150.573 L 243.889 150.573 L 219.458 114.473 L 208.615 129.024 L 208.615 150.573 L 185.968 150.573 L 185.968 55.044 Z " fill="rgb(105,105,105)"/></g><g><path d=" M 332.701 102.672 C 332.701 86.887 324.603 72.75 310.466 72.75 C 296.055 72.75 287.82 86.339 287.82 102.672 C 287.82 119.141 296.055 132.591 310.466 132.591 C 324.603 132.591 332.701 118.455 332.701 102.672 L 332.701 102.672 Z  M 262.703 102.672 C 262.703 72.476 282.742 53.945 310.33 53.945 C 337.917 53.945 358.366 72.476 358.366 102.672 C 358.366 133.003 337.779 151.396 310.33 151.396 C 283.154 151.396 262.703 133.003 262.703 102.672 Z " fill="rgb(105,105,105)"/></g><g><path d=" M 392.553 73.3 L 392.553 132.317 L 405.318 132.317 C 419.042 132.317 428.925 121.61 428.925 101.709 C 428.925 84.142 420.552 73.3 406.004 73.3 L 392.553 73.3 Z  M 370.044 55.045 L 407.652 55.045 C 433.729 55.045 452.944 72.338 452.944 102.123 C 452.944 133.141 432.493 150.574 407.102 150.574 L 370.044 150.574 L 370.044 55.045 Z " fill="rgb(105,105,105)"/></g><g><path d=" M 465.582 55.044 L 529.267 55.044 L 529.267 73.711 L 487.953 73.711 L 487.953 90.868 L 527.209 90.868 L 527.209 108.571 L 487.953 108.571 L 487.953 131.906 L 529.267 131.906 L 529.267 150.573 L 465.582 150.573 L 465.582 55.044 Z " fill="rgb(105,105,105)"/></g><path d=" M 541.215 55.045 L 563.862 55.045 L 563.862 150.574 L 541.215 150.574 L 541.215 55.045 Z " fill="rgb(105,105,105)"/><g><path d=" M 578.55 55.044 L 599.823 55.044 L 636.607 106.239 C 637.979 108.847 640.725 113.513 641.275 114.611 L 641.823 114.473 C 641.549 112.141 641.275 105.965 641.275 101.299 L 641.275 55.044 L 660.764 55.044 L 660.764 150.573 L 639.901 150.573 L 602.295 98.69 C 601.059 96.22 598.453 91.828 597.903 90.73 L 597.354 90.868 C 597.629 93.75 597.903 99.239 597.903 102.945 L 597.903 150.573 L 578.55 150.573 L 578.55 55.044 Z " fill="rgb(105,105,105)"/></g></g><g><g><clipPath id="_clipPath_oAdD7M8CHOhxeXOUy5kkALqYi1VzKHQ2"><path d=" M 731.733 55.045 L 687.676 108.436 L 687.676 55.045 L 679.304 55.045 L 679.304 150.575 L 687.676 150.575 L 687.676 120.514 L 700.853 104.181 L 735.713 150.575 L 745.322 150.575 L 706.205 97.729 L 740.929 55.045 L 731.733 55.045 Z " fill="rgb(255,255,255)"/></clipPath><g clip-path="url(#_clipPath_oAdD7M8CHOhxeXOUy5kkALqYi1VzKHQ2)"><g><g><g><g><g><path d=" M 731.733 55.045 L 687.676 108.436 L 687.676 55.045 L 679.304 55.045 L 679.304 150.575 L 687.676 150.575 L 687.676 120.514 L 700.853 104.181 L 735.713 150.575 L 745.322 150.575 L 728.691 128.107 L 706.205 97.729 L 740.929 55.045 L 731.733 55.045 Z " fill="rgb(105,105,105)"/></g></g></g></g></g></g></g><g><clipPath id="_clipPath_Y4ytoPh3bF7lNfKc0zOeVoUweVIomXVZ"><path d=" M 747.251 114.75 C 747.251 137.669 761.25 151.396 780.054 151.396 L 780.054 151.396 C 798.857 151.396 812.72 137.669 812.72 114.75 L 812.72 114.75 C 812.72 91.827 798.857 77.964 780.054 77.964 L 780.054 77.964 C 761.25 77.964 747.251 91.827 747.251 114.75 L 747.251 114.75 Z  M 755.899 114.75 C 755.899 97.319 764.957 85.79 780.054 85.79 L 780.054 85.79 C 795.151 85.79 804.074 97.319 804.074 114.75 L 804.074 114.75 C 804.074 131.219 795.151 143.985 780.054 143.985 L 780.054 143.985 C 764.957 143.985 755.899 131.219 755.899 114.75 L 755.899 114.75 Z " fill="rgb(255,255,255)"/></clipPath><g clip-path="url(#_clipPath_Y4ytoPh3bF7lNfKc0zOeVoUweVIomXVZ)"><g><g><g><g><g><path d=" M 747.251 114.75 C 747.251 137.669 761.25 151.396 780.054 151.396 L 780.054 151.396 C 798.857 151.396 812.72 137.669 812.72 114.75 L 812.72 114.75 C 812.72 91.827 798.857 77.964 780.054 77.964 L 780.054 77.964 C 761.25 77.964 747.251 91.827 747.251 114.75 L 747.251 114.75 Z  M 755.899 114.75 C 755.899 97.319 764.957 85.79 780.054 85.79 L 780.054 85.79 C 795.151 85.79 804.074 97.319 804.074 114.75 L 804.074 114.75 C 804.074 131.219 795.151 143.985 780.054 143.985 L 780.054 143.985 C 764.957 143.985 755.899 131.219 755.899 114.75 L 755.899 114.75 Z " fill="rgb(105,105,105)"/></g></g></g></g></g></g></g><g><clipPath id="_clipPath_sqpVmND9YGTqGX3h1iQ0eGxYsG8U3wCF"><path d=" M 879.982 51.751 L 879.982 91.965 C 875.862 84.142 867.766 78.104 855.687 78.104 L 855.687 78.104 C 837.844 78.104 824.395 92.241 824.395 115.022 L 824.395 115.022 C 824.395 139.045 837.57 151.396 855.139 151.396 L 855.139 151.396 C 865.706 151.396 875.038 146.181 880.255 136.571 L 880.255 136.571 L 880.805 150.575 L 888.353 150.575 L 888.353 51.751 L 879.982 51.751 Z  M 833.454 114.886 C 833.454 97.181 842.512 85.24 856.923 85.24 L 856.923 85.24 C 871.472 85.24 880.531 97.593 880.531 115.162 L 880.531 115.162 C 880.531 131.767 871.746 144.123 856.923 144.123 L 856.923 144.123 C 842.099 144.123 833.454 132.179 833.454 114.886 Z " fill="rgb(255,255,255)"/></clipPath><g clip-path="url(#_clipPath_sqpVmND9YGTqGX3h1iQ0eGxYsG8U3wCF)"><g><g><g><g><g><path d=" M 879.982 51.751 L 879.982 91.965 C 875.862 84.142 867.766 78.104 855.687 78.104 L 855.687 78.104 C 837.844 78.104 824.395 92.241 824.395 115.022 L 824.395 115.022 C 824.395 139.045 837.57 151.396 855.139 151.396 L 855.139 151.396 C 865.706 151.396 875.038 146.181 880.255 136.571 L 880.255 136.571 L 880.805 150.575 L 888.353 150.575 L 888.353 51.751 L 879.982 51.751 Z  M 833.454 114.886 C 833.454 97.181 842.512 85.24 856.923 85.24 L 856.923 85.24 C 871.472 85.24 880.531 97.593 880.531 115.162 L 880.531 115.162 C 880.531 131.767 871.746 144.123 856.923 144.123 L 856.923 144.123 C 842.099 144.123 833.454 132.179 833.454 114.886 Z " fill="rgb(105,105,105)"/></g></g></g></g></g></g></g><g><clipPath id="_clipPath_ank44KUYS4B29LuPiZsqXypW5ut3VkRJ"><path d=" M 904.283 113.788 C 904.283 138.769 920.479 151.534 940.244 151.534 L 940.244 151.534 C 950.537 151.534 958.087 148.789 963.302 145.083 L 963.302 145.083 L 963.302 138.221 C 958.222 141.377 950.811 144.533 941.615 144.533 L 941.615 144.533 C 925.968 144.533 913.339 134.513 912.793 114.75 L 912.793 114.75 L 964.262 114.75 L 964.4 112.002 C 965.084 92.515 955.065 77.964 935.164 77.964 L 935.164 77.964 C 918.008 77.964 904.283 92.515 904.283 113.788 Z  M 935.164 85.79 C 947.655 85.79 956.301 94.299 956.713 108.572 L 956.713 108.572 L 913.067 108.572 C 914.713 94.575 923.222 85.79 935.164 85.79 Z " fill="rgb(255,255,255)"/></clipPath><g clip-path="url(#_clipPath_ank44KUYS4B29LuPiZsqXypW5ut3VkRJ)"><g><g><g><g><g><path d=" M 904.283 113.788 C 904.283 138.769 920.479 151.534 940.244 151.534 L 940.244 151.534 C 950.537 151.534 958.087 148.789 963.302 145.083 L 963.302 145.083 L 963.302 138.221 C 958.222 141.377 950.811 144.533 941.615 144.533 L 941.615 144.533 C 925.968 144.533 913.339 134.513 912.793 114.75 L 912.793 114.75 L 964.262 114.75 L 964.4 112.002 C 965.084 92.515 955.065 77.964 935.164 77.964 L 935.164 77.964 C 918.008 77.964 904.283 92.515 904.283 113.788 Z  M 935.164 85.79 C 947.655 85.79 956.301 94.299 956.713 108.572 L 956.713 108.572 L 913.067 108.572 C 914.713 94.575 923.222 85.79 935.164 85.79 Z " fill="rgb(105,105,105)"/></g></g></g></g></g></g></g><g><clipPath id="_clipPath_zbsJQGRRLxDYcWi1u6jzYFm41fnWeod3"><path d=" M 988.838 93.749 L 988.15 79.202 L 980.604 79.202 L 980.604 150.575 L 988.974 150.575 L 988.974 110.494 C 988.974 96.631 997.621 86.338 1008.053 86.338 L 1008.053 86.338 C 1012.169 86.338 1015.053 87.162 1017.936 88.534 L 1017.936 88.534 L 1017.936 79.886 C 1015.6 78.652 1013.268 78.104 1009.151 78.104 L 1009.151 78.104 C 1000.503 78.104 992.68 83.732 988.838 93.749 Z " fill="rgb(255,255,255)"/></clipPath><g clip-path="url(#_clipPath_zbsJQGRRLxDYcWi1u6jzYFm41fnWeod3)"><g><g><g><g><g><path d=" M 988.838 93.749 L 988.15 79.202 L 980.604 79.202 L 980.604 150.575 L 988.974 150.575 L 988.974 110.494 C 988.974 96.631 997.621 86.338 1008.053 86.338 L 1008.053 86.338 C 1012.169 86.338 1015.053 87.162 1017.936 88.534 L 1017.936 88.534 L 1017.936 79.886 C 1015.6 78.652 1013.268 78.104 1009.151 78.104 L 1009.151 78.104 C 1000.503 78.104 992.68 83.732 988.838 93.749 Z " fill="rgb(105,105,105)"/></g></g></g></g></g></g></g><g><clipPath id="_clipPath_FdP6LwaoRGBfq0PKdkstkWoEhpjPbeiF"><path d=" M 1023.843 96.495 C 1023.843 105.415 1027.41 109.67 1043.058 116.12 L 1043.058 116.12 C 1057.605 122.16 1063.233 124.768 1063.233 133.005 L 1063.233 133.005 C 1063.233 140.965 1055.685 144.671 1046.077 144.671 L 1046.077 144.671 C 1036.88 144.671 1030.704 142.749 1024.117 139.729 L 1024.117 139.729 L 1024.117 146.866 C 1029.195 149.475 1036.744 151.534 1046.351 151.534 L 1046.351 151.534 C 1059.389 151.534 1071.604 145.221 1071.604 132.317 L 1071.604 132.317 C 1071.604 121.062 1064.605 116.946 1050.469 111.182 L 1050.469 111.182 C 1035.782 105.279 1032.214 102.123 1032.214 96.083 L 1032.214 96.083 C 1032.214 88.671 1038.94 85.102 1049.645 85.102 L 1049.645 85.102 C 1057.881 85.102 1063.644 87.162 1069.272 89.496 L 1069.272 89.496 L 1069.272 81.946 C 1064.881 80.026 1058.567 78.104 1049.509 78.104 L 1049.509 78.104 C 1033.45 78.104 1023.843 86.063 1023.843 96.495 Z " fill="rgb(255,255,255)"/></clipPath><g clip-path="url(#_clipPath_FdP6LwaoRGBfq0PKdkstkWoEhpjPbeiF)"><g><g><g><g><g><path d=" M 1023.843 96.495 C 1023.843 105.415 1027.41 109.67 1043.058 116.12 L 1043.058 116.12 C 1057.605 122.16 1063.233 124.768 1063.233 133.005 L 1063.233 133.005 C 1063.233 140.965 1055.685 144.671 1046.077 144.671 L 1046.077 144.671 C 1036.88 144.671 1030.704 142.749 1024.117 139.729 L 1024.117 139.729 L 1024.117 146.866 C 1029.195 149.475 1036.744 151.534 1046.351 151.534 L 1046.351 151.534 C 1059.389 151.534 1071.604 145.221 1071.604 132.317 L 1071.604 132.317 C 1071.604 121.062 1064.605 116.946 1050.469 111.182 L 1050.469 111.182 C 1035.782 105.279 1032.214 102.123 1032.214 96.083 L 1032.214 96.083 C 1032.214 88.671 1038.94 85.102 1049.645 85.102 L 1049.645 85.102 C 1057.881 85.102 1063.644 87.162 1069.272 89.496 L 1069.272 89.496 L 1069.272 81.946 C 1064.881 80.026 1058.567 78.104 1049.509 78.104 L 1049.509 78.104 C 1033.45 78.104 1023.843 86.063 1023.843 96.495 Z " fill="rgb(105,105,105)"/></g></g></g></g></g></g></g></g></g></g></g></g></g></svg>