<?xml version="1.0" encoding="UTF-8" standalone="no"?><!-- Generator: Gravit.io --><svg xmlns="http://www.w3.org/2000/svg" xmlns:xlink="http://www.w3.org/1999/xlink" style="isolation:isolate" viewBox="0 0 1128.297 255.793" width="1128.297pt" height="255.793pt"><defs><clipPath id="_clipPath_j922vQ1gsjC4nlirAivqTWf8a2KSSDiK"><rect width="1128.297" height="255.793"/></clipPath></defs><g clip-path="url(#_clipPath_j922vQ1gsjC4nlirAivqTWf8a2KSSDiK)"><clipPath id="_clipPath_kWk6bca935J19RldGWciiYhRMhUQpjuU"><rect x="28.346" y="28.346" width="1071.604" height="199.1" transform="matrix(1,0,0,1,0,0)" fill="rgb(255,255,255)"/></clipPath><g clip-path="url(#_clipPath_kWk6bca935J19RldGWciiYhRMhUQpjuU)"><g><g><path d=" M 104.051 105.312 C 95.571 102.764 87.647 98.091 83.227 89.757 C 89.761 85.721 96.693 82.503 103.785 80.305 C 101.757 83.949 100.593 88.135 100.593 92.591 C 100.593 97.229 101.867 101.567 104.051 105.312 L 104.051 105.312 Z  M 125.941 108.155 C 117.359 108.155 110.375 101.173 110.375 92.591 C 110.375 84.008 117.359 77.027 125.941 77.027 C 134.523 77.027 141.504 84.008 141.504 92.591 C 141.504 101.173 134.523 108.155 125.941 108.155 Z  M 111.28 150.48 C 119.761 153.028 127.684 157.7 132.105 166.033 C 125.571 170.071 118.637 173.291 111.545 175.487 C 113.573 171.843 114.739 167.657 114.739 163.2 C 114.739 158.561 113.465 154.224 111.28 150.48 L 111.28 150.48 Z  M 89.391 147.636 C 97.972 147.636 104.956 154.617 104.956 163.2 C 104.956 171.783 97.972 178.767 89.391 178.767 C 80.808 178.767 73.825 171.783 73.825 163.2 C 73.825 154.617 80.808 147.636 89.391 147.636 L 89.391 147.636 Z  M 140.152 160.503 C 131.848 146.031 114.252 137.853 89.687 137.853 C 89.652 137.853 89.621 137.863 89.588 137.864 C 89.521 137.864 89.457 137.853 89.391 137.853 C 75.412 137.853 64.043 149.225 64.043 163.2 C 64.043 177.177 75.412 188.549 89.391 188.549 C 89.737 188.549 90.073 188.509 90.415 188.497 C 90.587 188.515 90.753 188.549 90.931 188.549 C 106.16 188.549 121.473 183.709 135.233 175.661 C 135.556 177.676 135.745 179.816 135.745 182.123 C 135.745 202.752 118.253 216.613 92.22 216.613 C 66.673 216.613 39.179 198.393 39.179 158.391 C 39.179 135.159 54.307 111.152 75.18 95.289 C 83.483 109.761 101.079 117.94 125.645 117.94 C 125.679 117.94 125.711 117.931 125.744 117.929 C 125.809 117.931 125.875 117.94 125.941 117.94 C 139.917 117.94 151.287 106.568 151.287 92.591 C 151.287 78.615 139.917 67.241 125.941 67.241 C 125.595 67.241 125.259 67.28 124.916 67.293 C 124.745 67.276 124.577 67.241 124.401 67.241 C 109.171 67.241 93.857 72.08 80.097 80.128 C 79.775 78.115 79.585 75.975 79.585 73.668 C 79.585 53.04 97.079 39.181 123.111 39.181 C 148.656 39.181 176.151 57.399 176.151 97.401 C 176.151 120.632 161.023 144.639 140.152 160.503 L 140.152 160.503 Z  M 185.933 97.401 C 185.933 50.677 153.369 29.396 123.111 29.396 C 91.723 29.396 69.803 47.601 69.803 73.668 C 69.803 78.011 70.316 82.079 71.315 85.853 C 46.992 103.413 29.396 131.049 29.396 158.391 C 29.396 205.115 61.963 226.396 92.22 226.396 C 123.608 226.396 145.528 208.189 145.528 182.123 C 145.528 177.78 145.016 173.711 144.016 169.937 C 168.337 152.376 185.933 124.741 185.933 97.401 Z " fill="rgb(105,105,105)" vector-effect="non-scaling-stroke" stroke-width="2.1" stroke="rgb(105,105,105)" stroke-linejoin="miter" stroke-linecap="butt" stroke-miterlimit="4"/></g><g><g><path d=" M 214.314 83.39 L 236.961 83.39 L 236.961 125.39 L 270.039 83.39 L 292.272 83.39 L 260.98 125.116 L 296.664 178.919 L 272.235 178.919 L 247.804 142.819 L 236.961 157.37 L 236.961 178.919 L 214.314 178.919 L 214.314 83.39 Z " fill="rgb(105,105,105)"/></g><g><path d=" M 361.047 131.018 C 361.047 115.233 352.949 101.096 338.812 101.096 C 324.401 101.096 316.166 114.685 316.166 131.018 C 316.166 147.487 324.401 160.937 338.812 160.937 C 352.949 160.937 361.047 146.801 361.047 131.018 L 361.047 131.018 Z  M 291.049 131.018 C 291.049 100.822 311.088 82.291 338.676 82.291 C 366.263 82.291 386.712 100.822 386.712 131.018 C 386.712 161.349 366.125 179.742 338.676 179.742 C 311.5 179.742 291.049 161.349 291.049 131.018 Z " fill="rgb(105,105,105)"/></g><g><path d=" M 420.899 101.646 L 420.899 160.663 L 433.664 160.663 C 447.388 160.663 457.271 149.956 457.271 130.055 C 457.271 112.488 448.898 101.646 434.35 101.646 L 420.899 101.646 Z  M 398.39 83.391 L 435.998 83.391 C 462.075 83.391 481.29 100.684 481.29 130.469 C 481.29 161.487 460.839 178.92 435.448 178.92 L 398.39 178.92 L 398.39 83.391 Z " fill="rgb(105,105,105)"/></g><g><path d=" M 493.928 83.39 L 557.613 83.39 L 557.613 102.057 L 516.299 102.057 L 516.299 119.214 L 555.555 119.214 L 555.555 136.917 L 516.299 136.917 L 516.299 160.252 L 557.613 160.252 L 557.613 178.919 L 493.928 178.919 L 493.928 83.39 Z " fill="rgb(105,105,105)"/></g><path d=" M 569.561 83.391 L 592.208 83.391 L 592.208 178.92 L 569.561 178.92 L 569.561 83.391 Z " fill="rgb(105,105,105)"/><g><path d=" M 606.896 83.39 L 628.169 83.39 L 664.953 134.585 C 666.325 137.193 669.071 141.859 669.621 142.957 L 670.169 142.819 C 669.895 140.487 669.621 134.311 669.621 129.645 L 669.621 83.39 L 689.11 83.39 L 689.11 178.919 L 668.247 178.919 L 630.641 127.036 C 629.405 124.566 626.799 120.174 626.249 119.076 L 625.7 119.214 C 625.975 122.096 626.249 127.585 626.249 131.291 L 626.249 178.919 L 606.896 178.919 L 606.896 83.39 Z " fill="rgb(105,105,105)"/></g></g><g><g><clipPath id="_clipPath_OyB9zDChIusAuCrSWHMAYmdS5dTjzOs4"><path d=" M 760.079 83.391 L 716.022 136.782 L 716.022 83.391 L 707.65 83.391 L 707.65 178.921 L 716.022 178.921 L 716.022 148.86 L 729.199 132.527 L 764.059 178.921 L 773.668 178.921 L 734.551 126.075 L 769.275 83.391 L 760.079 83.391 Z " fill="rgb(255,255,255)"/></clipPath><g clip-path="url(#_clipPath_OyB9zDChIusAuCrSWHMAYmdS5dTjzOs4)"><g><g><g><g><linearGradient id="_lgradient_0" x1="-0.22411159000000147" y1="0.40838480708677893" x2="5.746240736321124" y2="2.065937792896837" gradientTransform="matrix(66.018,0,0,95.53,707.65,83.391)" gradientUnits="userSpaceOnUse"><stop offset="0%" stop-opacity="1" style="stop-color:rgb(105,105,105)"/><stop offset="100%" stop-opacity="1" style="stop-color:rgb(146,28,128)"/></linearGradient><path d=" M 760.079 83.391 L 716.022 136.782 L 716.022 83.391 L 707.65 83.391 L 707.65 178.921 L 716.022 178.921 L 716.022 148.86 L 729.199 132.527 L 764.059 178.921 L 773.668 178.921 L 757.037 156.453 L 734.551 126.075 L 769.275 83.391 L 760.079 83.391 Z " fill="url(#_lgradient_0)"/></g></g></g></g></g></g><g><clipPath id="_clipPath_nIyKCSyPf5Wb8HUihjVrAfvKdxGz8OPu"><path d=" M 775.597 143.096 C 775.597 166.015 789.596 179.742 808.4 179.742 L 808.4 179.742 C 827.203 179.742 841.066 166.015 841.066 143.096 L 841.066 143.096 C 841.066 120.173 827.203 106.31 808.4 106.31 L 808.4 106.31 C 789.596 106.31 775.597 120.173 775.597 143.096 L 775.597 143.096 Z  M 784.245 143.096 C 784.245 125.665 793.303 114.136 808.4 114.136 L 808.4 114.136 C 823.497 114.136 832.42 125.665 832.42 143.096 L 832.42 143.096 C 832.42 159.565 823.497 172.331 808.4 172.331 L 808.4 172.331 C 793.303 172.331 784.245 159.565 784.245 143.096 L 784.245 143.096 Z " fill="rgb(255,255,255)"/></clipPath><g clip-path="url(#_clipPath_nIyKCSyPf5Wb8HUihjVrAfvKdxGz8OPu)"><g><g><g><g><linearGradient id="_lgradient_1" x1="-0.22411159000000147" y1="0.40838480708677893" x2="5.746240736321124" y2="2.065937792896837" gradientTransform="matrix(65.469,0,0,73.432,775.597,106.31)" gradientUnits="userSpaceOnUse"><stop offset="0%" stop-opacity="1" style="stop-color:rgb(105,105,105)"/><stop offset="100%" stop-opacity="1" style="stop-color:rgb(146,28,128)"/></linearGradient><path d=" M 775.597 143.096 C 775.597 166.015 789.596 179.742 808.4 179.742 L 808.4 179.742 C 827.203 179.742 841.066 166.015 841.066 143.096 L 841.066 143.096 C 841.066 120.173 827.203 106.31 808.4 106.31 L 808.4 106.31 C 789.596 106.31 775.597 120.173 775.597 143.096 L 775.597 143.096 Z  M 784.245 143.096 C 784.245 125.665 793.303 114.136 808.4 114.136 L 808.4 114.136 C 823.497 114.136 832.42 125.665 832.42 143.096 L 832.42 143.096 C 832.42 159.565 823.497 172.331 808.4 172.331 L 808.4 172.331 C 793.303 172.331 784.245 159.565 784.245 143.096 L 784.245 143.096 Z " fill="url(#_lgradient_1)"/></g></g></g></g></g></g><g><clipPath id="_clipPath_soTBp3S0nV2mNySDys9dEYPJKgkEWJyI"><path d=" M 908.328 80.097 L 908.328 120.311 C 904.208 112.488 896.112 106.45 884.033 106.45 L 884.033 106.45 C 866.19 106.45 852.741 120.587 852.741 143.368 L 852.741 143.368 C 852.741 167.391 865.916 179.742 883.485 179.742 L 883.485 179.742 C 894.052 179.742 903.384 174.527 908.601 164.917 L 908.601 164.917 L 909.151 178.921 L 916.699 178.921 L 916.699 80.097 L 908.328 80.097 Z  M 861.8 143.232 C 861.8 125.527 870.858 113.586 885.269 113.586 L 885.269 113.586 C 899.818 113.586 908.877 125.939 908.877 143.508 L 908.877 143.508 C 908.877 160.113 900.092 172.469 885.269 172.469 L 885.269 172.469 C 870.445 172.469 861.8 160.525 861.8 143.232 Z " fill="rgb(255,255,255)"/></clipPath><g clip-path="url(#_clipPath_soTBp3S0nV2mNySDys9dEYPJKgkEWJyI)"><g><g><g><g><linearGradient id="_lgradient_2" x1="-0.22411159000000147" y1="0.40838480708677893" x2="5.746240736321124" y2="2.065937792896837" gradientTransform="matrix(63.958,0,0,99.645,852.741,80.097)" gradientUnits="userSpaceOnUse"><stop offset="0%" stop-opacity="1" style="stop-color:rgb(105,105,105)"/><stop offset="100%" stop-opacity="1" style="stop-color:rgb(146,28,128)"/></linearGradient><path d=" M 908.328 80.097 L 908.328 120.311 C 904.208 112.488 896.112 106.45 884.033 106.45 L 884.033 106.45 C 866.19 106.45 852.741 120.587 852.741 143.368 L 852.741 143.368 C 852.741 167.391 865.916 179.742 883.485 179.742 L 883.485 179.742 C 894.052 179.742 903.384 174.527 908.601 164.917 L 908.601 164.917 L 909.151 178.921 L 916.699 178.921 L 916.699 80.097 L 908.328 80.097 Z  M 861.8 143.232 C 861.8 125.527 870.858 113.586 885.269 113.586 L 885.269 113.586 C 899.818 113.586 908.877 125.939 908.877 143.508 L 908.877 143.508 C 908.877 160.113 900.092 172.469 885.269 172.469 L 885.269 172.469 C 870.445 172.469 861.8 160.525 861.8 143.232 Z " fill="url(#_lgradient_2)"/></g></g></g></g></g></g><g><clipPath id="_clipPath_i3xTixGVrm3t5F0DpZMSVwFhIwQhecbq"><path d=" M 932.629 142.134 C 932.629 167.115 948.825 179.88 968.59 179.88 L 968.59 179.88 C 978.883 179.88 986.433 177.135 991.648 173.429 L 991.648 173.429 L 991.648 166.567 C 986.568 169.723 979.157 172.879 969.961 172.879 L 969.961 172.879 C 954.314 172.879 941.685 162.859 941.139 143.096 L 941.139 143.096 L 992.608 143.096 L 992.746 140.348 C 993.43 120.861 983.411 106.31 963.51 106.31 L 963.51 106.31 C 946.354 106.31 932.629 120.861 932.629 142.134 M 963.51 114.136 C 976.001 114.136 984.647 122.645 985.059 136.918 L 985.059 136.918 L 941.413 136.918 C 943.059 122.921 951.568 114.136 963.51 114.136 Z " fill="rgb(255,255,255)"/></clipPath><g clip-path="url(#_clipPath_i3xTixGVrm3t5F0DpZMSVwFhIwQhecbq)"><g><g><g><g><linearGradient id="_lgradient_3" x1="-0.22411159000000147" y1="0.40838480708677893" x2="5.746240736321124" y2="2.065937792896837" gradientTransform="matrix(60.15,0,0,73.57,932.629,106.31)" gradientUnits="userSpaceOnUse"><stop offset="0%" stop-opacity="1" style="stop-color:rgb(105,105,105)"/><stop offset="100%" stop-opacity="1" style="stop-color:rgb(146,28,128)"/></linearGradient><path d=" M 932.629 142.134 C 932.629 167.115 948.825 179.88 968.59 179.88 L 968.59 179.88 C 978.883 179.88 986.433 177.135 991.648 173.429 L 991.648 173.429 L 991.648 166.567 C 986.568 169.723 979.157 172.879 969.961 172.879 L 969.961 172.879 C 954.314 172.879 941.685 162.859 941.139 143.096 L 941.139 143.096 L 992.608 143.096 L 992.746 140.348 C 993.43 120.861 983.411 106.31 963.51 106.31 L 963.51 106.31 C 946.354 106.31 932.629 120.861 932.629 142.134 M 963.51 114.136 C 976.001 114.136 984.647 122.645 985.059 136.918 L 985.059 136.918 L 941.413 136.918 C 943.059 122.921 951.568 114.136 963.51 114.136 Z " fill="url(#_lgradient_3)"/></g></g></g></g></g></g><g><clipPath id="_clipPath_tmXNVs6vcylFVY3G4psont7nl5bpBvTY"><path d=" M 1017.184 122.095 L 1016.496 107.548 L 1008.95 107.548 L 1008.95 178.921 L 1017.32 178.921 L 1017.32 138.84 C 1017.32 124.977 1025.967 114.684 1036.399 114.684 L 1036.399 114.684 C 1040.515 114.684 1043.399 115.508 1046.282 116.88 L 1046.282 116.88 L 1046.282 108.232 C 1043.946 106.998 1041.614 106.45 1037.497 106.45 L 1037.497 106.45 C 1028.849 106.45 1021.026 112.078 1017.184 122.095 Z " fill="rgb(255,255,255)"/></clipPath><g clip-path="url(#_clipPath_tmXNVs6vcylFVY3G4psont7nl5bpBvTY)"><g><g><g><g><linearGradient id="_lgradient_4" x1="-0.22411159000000147" y1="0.40838480708677893" x2="5.746240736321124" y2="2.065937792896837" gradientTransform="matrix(37.332,0,0,72.471,1008.95,106.45)" gradientUnits="userSpaceOnUse"><stop offset="0%" stop-opacity="1" style="stop-color:rgb(105,105,105)"/><stop offset="100%" stop-opacity="1" style="stop-color:rgb(146,28,128)"/></linearGradient><path d=" M 1017.184 122.095 L 1016.496 107.548 L 1008.95 107.548 L 1008.95 178.921 L 1017.32 178.921 L 1017.32 138.84 C 1017.32 124.977 1025.967 114.684 1036.399 114.684 L 1036.399 114.684 C 1040.515 114.684 1043.399 115.508 1046.282 116.88 L 1046.282 116.88 L 1046.282 108.232 C 1043.946 106.998 1041.614 106.45 1037.497 106.45 L 1037.497 106.45 C 1028.849 106.45 1021.026 112.078 1017.184 122.095 Z " fill="url(#_lgradient_4)"/></g></g></g></g></g></g><g><clipPath id="_clipPath_6OLU4sv1USw6R1vKIajvL3JQIXkvGLX8"><path d=" M 1052.189 124.841 C 1052.189 133.761 1055.756 138.016 1071.404 144.466 L 1071.404 144.466 C 1085.951 150.506 1091.579 153.114 1091.579 161.351 L 1091.579 161.351 C 1091.579 169.311 1084.031 173.017 1074.423 173.017 L 1074.423 173.017 C 1065.226 173.017 1059.05 171.095 1052.463 168.075 L 1052.463 168.075 L 1052.463 175.212 C 1057.541 177.821 1065.09 179.88 1074.697 179.88 L 1074.697 179.88 C 1087.735 179.88 1099.95 173.567 1099.95 160.663 L 1099.95 160.663 C 1099.95 149.408 1092.951 145.292 1078.815 139.528 L 1078.815 139.528 C 1064.128 133.625 1060.56 130.469 1060.56 124.429 L 1060.56 124.429 C 1060.56 117.017 1067.286 113.448 1077.991 113.448 L 1077.991 113.448 C 1086.227 113.448 1091.99 115.508 1097.618 117.842 L 1097.618 117.842 L 1097.618 110.292 C 1093.227 108.372 1086.913 106.45 1077.855 106.45 L 1077.855 106.45 C 1061.796 106.45 1052.189 114.409 1052.189 124.841" fill="rgb(255,255,255)"/></clipPath><g clip-path="url(#_clipPath_6OLU4sv1USw6R1vKIajvL3JQIXkvGLX8)"><g><g><g><g><linearGradient id="_lgradient_5" x1="-0.22411159000000147" y1="0.40838480708677893" x2="5.746240736321124" y2="2.065937792896837" gradientTransform="matrix(47.761,0,0,73.43,1052.189,106.45)" gradientUnits="userSpaceOnUse"><stop offset="0%" stop-opacity="1" style="stop-color:rgb(105,105,105)"/><stop offset="100%" stop-opacity="1" style="stop-color:rgb(146,28,128)"/></linearGradient><path d=" M 1052.189 124.841 C 1052.189 133.761 1055.756 138.016 1071.404 144.466 L 1071.404 144.466 C 1085.951 150.506 1091.579 153.114 1091.579 161.351 L 1091.579 161.351 C 1091.579 169.311 1084.031 173.017 1074.423 173.017 L 1074.423 173.017 C 1065.226 173.017 1059.05 171.095 1052.463 168.075 L 1052.463 168.075 L 1052.463 175.212 C 1057.541 177.821 1065.09 179.88 1074.697 179.88 L 1074.697 179.88 C 1087.735 179.88 1099.95 173.567 1099.95 160.663 L 1099.95 160.663 C 1099.95 149.408 1092.951 145.292 1078.815 139.528 L 1078.815 139.528 C 1064.128 133.625 1060.56 130.469 1060.56 124.429 L 1060.56 124.429 C 1060.56 117.017 1067.286 113.448 1077.991 113.448 L 1077.991 113.448 C 1086.227 113.448 1091.99 115.508 1097.618 117.842 L 1097.618 117.842 L 1097.618 110.292 C 1093.227 108.372 1086.913 106.45 1077.855 106.45 L 1077.855 106.45 C 1061.796 106.45 1052.189 114.409 1052.189 124.841" fill="url(#_lgradient_5)"/></g></g></g></g></g></g></g></g></g></g></svg>